<svg viewBox="-20.0 -48.9 590.0 501.9" xmlns="http://www.w3.org/2000/svg">
	<style>
		svg
		{
			width: 240px;
			height: 240px;
		}
		text.index
		{
		}
		ellipse.vertex
		{
			stroke: black;
			stroke-width: 2px;
			fill: #888;
		}
		text.vertex.index
		{
			fill: black;
			font-size: 5px;
			text-anchor: middle;
			dominant-baseline: central;
		}
		polygon.face
		{
			stroke: none;
			fill: none;
		}
		text.face.index
		{
			fill: black;
			font-size: 10px;
			text-anchor: middle;
			dominant-baseline: central;
		}
		polyline.edge
		{
			stroke: black;
			stroke-linecap: square;
			stroke-linejoin: miter;
			fill: none;
			stroke-width: 4px;
		}
		text.edge.index
		{
			fill: black;
			font-size: 8px;
			text-anchor: middle;
			dominant-baseline: central;
		}
	</style>

	<!-- Faces -->
	<polygon class="face" points="17.3,394.1 17.3,356.4 50.0,337.5 82.7,356.4 82.7,394.1 50.0,413.0" />
	<polygon class="face" points="117.3,394.1 117.3,356.4 150.0,337.5 182.7,356.4 182.7,394.1 150.0,413.0" />
	<polygon class="face" points="217.3,394.1 217.3,356.4 250.0,337.5 282.7,356.4 282.7,394.1 250.0,413.0" />
	<polygon class="face" points="317.3,394.1 317.3,356.4 350.0,337.5 382.7,356.4 382.7,394.1 350.0,413.0" />
	<polygon class="face" points="417.3,394.1 417.3,356.4 450.0,337.5 482.7,356.4 482.7,394.1 450.0,413.0" />
	<polygon class="face" points="67.3,307.5 67.3,269.8 100.0,250.9 132.7,269.8 132.7,307.5 100.0,326.4" />
	<polygon class="face" points="167.3,307.5 167.3,269.8 200.0,250.9 232.7,269.8 232.7,307.5 200.0,326.4" />
	<polygon class="face" points="267.3,307.5 267.3,269.8 300.0,250.9 332.7,269.8 332.7,307.5 300.0,326.4" />
	<polygon class="face" points="367.3,307.5 367.3,269.8 400.0,250.9 432.7,269.8 432.7,307.5 400.0,326.4" />
	<polygon class="face" points="467.3,307.5 467.3,269.8 500.0,250.9 532.7,269.8 532.7,307.5 500.0,326.4" />
	<polygon class="face" points="17.3,220.9 17.3,183.2 50.0,164.3 82.7,183.2 82.7,220.9 50.0,239.8" />
	<polygon class="face" points="117.3,220.9 117.3,183.2 150.0,164.3 182.7,183.2 182.7,220.9 150.0,239.8" />
	<polygon class="face" points="217.3,220.9 217.3,183.2 250.0,164.3 282.7,183.2 282.7,220.9 250.0,239.8" />
	<polygon class="face" points="317.3,220.9 317.3,183.2 350.0,164.3 382.7,183.2 382.7,220.9 350.0,239.8" />
	<polygon class="face" points="417.3,220.9 417.3,183.2 450.0,164.3 482.7,183.2 482.7,220.9 450.0,239.8" />
	<polygon class="face" points="67.3,134.3 67.3,96.6 100.0,77.7 132.7,96.6 132.7,134.3 100.0,153.2" />
	<polygon class="face" points="167.3,134.3 167.3,96.6 200.0,77.7 232.7,96.6 232.7,134.3 200.0,153.2" />
	<polygon class="face" points="267.3,134.3 267.3,96.6 300.0,77.7 332.7,96.6 332.7,134.3 300.0,153.2" />
	<polygon class="face" points="367.3,134.3 367.3,96.6 400.0,77.7 432.7,96.6 432.7,134.3 400.0,153.2" />
	<polygon class="face" points="467.3,134.3 467.3,96.6 500.0,77.7 532.7,96.6 532.7,134.3 500.0,153.2" />
	<polygon class="face" points="17.3,47.7 17.3,10.0 50.0,-8.9 82.7,10.0 82.7,47.7 50.0,66.6" />
	<polygon class="face" points="117.3,47.7 117.3,10.0 150.0,-8.9 182.7,10.0 182.7,47.7 150.0,66.6" />
	<polygon class="face" points="217.3,47.7 217.3,10.0 250.0,-8.9 282.7,10.0 282.7,47.7 250.0,66.6" />
	<polygon class="face" points="317.3,47.7 317.3,10.0 350.0,-8.9 382.7,10.0 382.7,47.7 350.0,66.6" />
	<polygon class="face" points="417.3,47.7 417.3,10.0 450.0,-8.9 482.7,10.0 482.7,47.7 450.0,66.6" />

	<!-- Edges -->
	<polyline class="edge" points="45.7,430.5 4.3,406.6 4.3,406.6" />
	<polyline class="edge" points="0.0,399.1 0.0,351.4 0.0,351.4" />
	<polyline class="edge" points="4.3,343.9 45.7,320.0 45.7,320.0" />
	<polyline class="edge" points="54.3,320.0 95.7,343.9 95.7,343.9" />
	<polyline class="edge" points="100.0,351.4 100.0,399.1 100.0,399.1" />
	<polyline class="edge" points="95.7,406.6 54.3,430.5 54.3,430.5" />
	<polyline class="edge" points="145.7,430.5 104.3,406.6 104.3,406.6" />
	<polyline class="edge" points="100.0,399.1 100.0,351.4 100.0,351.4" />
	<polyline class="edge" points="104.3,343.9 145.7,320.0 145.7,320.0" />
	<polyline class="edge" points="154.3,320.0 195.7,343.9 195.7,343.9" />
	<polyline class="edge" points="200.0,351.4 200.0,399.1 200.0,399.1" />
	<polyline class="edge" points="195.7,406.6 154.3,430.5 154.3,430.5" />
	<polyline class="edge" points="245.7,430.5 204.3,406.6 204.3,406.6" />
	<polyline class="edge" points="200.0,399.1 200.0,351.4 200.0,351.4" />
	<polyline class="edge" points="204.3,343.9 245.7,320.0 245.7,320.0" />
	<polyline class="edge" points="254.3,320.0 295.7,343.9 295.7,343.9" />
	<polyline class="edge" points="300.0,351.4 300.0,399.1 300.0,399.1" />
	<polyline class="edge" points="295.7,406.6 254.3,430.5 254.3,430.5" />
	<polyline class="edge" points="345.7,430.5 304.3,406.6 304.3,406.6" />
	<polyline class="edge" points="300.0,399.1 300.0,351.4 300.0,351.4" />
	<polyline class="edge" points="304.3,343.9 345.7,320.0 345.7,320.0" />
	<polyline class="edge" points="354.3,320.0 395.7,343.9 395.7,343.9" />
	<polyline class="edge" points="400.0,351.4 400.0,399.1 400.0,399.1" />
	<polyline class="edge" points="395.7,406.6 354.3,430.5 354.3,430.5" />
	<polyline class="edge" points="445.7,430.5 404.3,406.6 404.3,406.6" />
	<polyline class="edge" points="400.0,399.1 400.0,351.4 400.0,351.4" />
	<polyline class="edge" points="404.3,343.9 445.7,320.0 445.7,320.0" />
	<polyline class="edge" points="454.3,320.0 495.7,343.9 495.7,343.9" />
	<polyline class="edge" points="500.0,351.4 500.0,399.1 500.0,399.1" />
	<polyline class="edge" points="495.7,406.6 454.3,430.5 454.3,430.5" />
	<polyline class="edge" points="95.7,343.9 54.3,320.0 54.3,320.0" />
	<polyline class="edge" points="50.0,312.5 50.0,264.8 50.0,264.8" />
	<polyline class="edge" points="54.3,257.3 95.7,233.4 95.7,233.4" />
	<polyline class="edge" points="104.3,233.4 145.7,257.3 145.7,257.3" />
	<polyline class="edge" points="150.0,264.8 150.0,312.5 150.0,312.5" />
	<polyline class="edge" points="145.7,320.0 104.3,343.9 104.3,343.9" />
	<polyline class="edge" points="195.7,343.9 154.3,320.0 154.3,320.0" />
	<polyline class="edge" points="150.0,312.5 150.0,264.8 150.0,264.8" />
	<polyline class="edge" points="154.3,257.3 195.7,233.4 195.7,233.4" />
	<polyline class="edge" points="204.3,233.4 245.7,257.3 245.7,257.3" />
	<polyline class="edge" points="250.0,264.8 250.0,312.5 250.0,312.5" />
	<polyline class="edge" points="245.7,320.0 204.3,343.9 204.3,343.9" />
	<polyline class="edge" points="295.7,343.9 254.3,320.0 254.3,320.0" />
	<polyline class="edge" points="250.0,312.5 250.0,264.8 250.0,264.8" />
	<polyline class="edge" points="254.3,257.3 295.7,233.4 295.7,233.4" />
	<polyline class="edge" points="304.3,233.4 345.7,257.3 345.7,257.3" />
	<polyline class="edge" points="350.0,264.8 350.0,312.5 350.0,312.5" />
	<polyline class="edge" points="345.7,320.0 304.3,343.9 304.3,343.9" />
	<polyline class="edge" points="395.7,343.9 354.3,320.0 354.3,320.0" />
	<polyline class="edge" points="350.0,312.5 350.0,264.8 350.0,264.8" />
	<polyline class="edge" points="354.3,257.3 395.7,233.4 395.7,233.4" />
	<polyline class="edge" points="404.3,233.4 445.7,257.3 445.7,257.3" />
	<polyline class="edge" points="450.0,264.8 450.0,312.5 450.0,312.5" />
	<polyline class="edge" points="445.7,320.0 404.3,343.9 404.3,343.9" />
	<polyline class="edge" points="495.7,343.9 454.3,320.0 454.3,320.0" />
	<polyline class="edge" points="450.0,312.5 450.0,264.8 450.0,264.8" />
	<polyline class="edge" points="454.3,257.3 495.7,233.4 495.7,233.4" />
	<polyline class="edge" points="504.3,233.4 545.7,257.3 545.7,257.3" />
	<polyline class="edge" points="550.0,264.8 550.0,312.5 550.0,312.5" />
	<polyline class="edge" points="545.7,320.0 504.3,343.9 504.3,343.9" />
	<polyline class="edge" points="45.7,257.3 4.3,233.4 4.3,233.4" />
	<polyline class="edge" points="0.0,225.9 0.0,178.2 0.0,178.2" />
	<polyline class="edge" points="4.3,170.7 45.7,146.8 45.7,146.8" />
	<polyline class="edge" points="54.3,146.8 95.7,170.7 95.7,170.7" />
	<polyline class="edge" points="100.0,178.2 100.0,225.9 100.0,225.9" />
	<polyline class="edge" points="95.7,233.4 54.3,257.3 54.3,257.3" />
	<polyline class="edge" points="145.7,257.3 104.3,233.4 104.3,233.4" />
	<polyline class="edge" points="100.0,225.9 100.0,178.2 100.0,178.2" />
	<polyline class="edge" points="104.3,170.7 145.7,146.8 145.7,146.8" />
	<polyline class="edge" points="154.3,146.8 195.7,170.7 195.7,170.7" />
	<polyline class="edge" points="200.0,178.2 200.0,225.9 200.0,225.9" />
	<polyline class="edge" points="195.7,233.4 154.3,257.3 154.3,257.3" />
	<polyline class="edge" points="245.7,257.3 204.3,233.4 204.3,233.4" />
	<polyline class="edge" points="200.0,225.9 200.0,178.2 200.0,178.2" />
	<polyline class="edge" points="204.3,170.7 245.7,146.8 245.7,146.8" />
	<polyline class="edge" points="254.3,146.8 295.7,170.7 295.7,170.7" />
	<polyline class="edge" points="300.0,178.2 300.0,225.9 300.0,225.9" />
	<polyline class="edge" points="295.7,233.4 254.3,257.3 254.3,257.3" />
	<polyline class="edge" points="345.7,257.3 304.3,233.4 304.3,233.4" />
	<polyline class="edge" points="300.0,225.9 300.0,178.2 300.0,178.2" />
	<polyline class="edge" points="304.3,170.7 345.7,146.8 345.7,146.8" />
	<polyline class="edge" points="354.3,146.8 395.7,170.7 395.7,170.7" />
	<polyline class="edge" points="400.0,178.2 400.0,225.9 400.0,225.9" />
	<polyline class="edge" points="395.7,233.4 354.3,257.3 354.3,257.3" />
	<polyline class="edge" points="445.7,257.3 404.3,233.4 404.3,233.4" />
	<polyline class="edge" points="400.0,225.9 400.0,178.2 400.0,178.2" />
	<polyline class="edge" points="404.3,170.7 445.7,146.8 445.7,146.8" />
	<polyline class="edge" points="454.3,146.8 495.7,170.7 495.7,170.7" />
	<polyline class="edge" points="500.0,178.2 500.0,225.9 500.0,225.9" />
	<polyline class="edge" points="495.7,233.4 454.3,257.3 454.3,257.3" />
	<polyline class="edge" points="95.7,170.7 54.3,146.8 54.3,146.8" />
	<polyline class="edge" points="50.0,139.3 50.0,91.6 50.0,91.6" />
	<polyline class="edge" points="54.3,84.1 95.7,60.2 95.7,60.2" />
	<polyline class="edge" points="104.3,60.2 145.7,84.1 145.7,84.1" />
	<polyline class="edge" points="150.0,91.6 150.0,139.3 150.0,139.3" />
	<polyline class="edge" points="145.7,146.8 104.3,170.7 104.3,170.7" />
	<polyline class="edge" points="195.7,170.7 154.3,146.8 154.3,146.8" />
	<polyline class="edge" points="150.0,139.3 150.0,91.6 150.0,91.6" />
	<polyline class="edge" points="154.3,84.1 195.7,60.2 195.7,60.2" />
	<polyline class="edge" points="204.3,60.2 245.7,84.1 245.7,84.1" />
	<polyline class="edge" points="250.0,91.6 250.0,139.3 250.0,139.3" />
	<polyline class="edge" points="245.7,146.8 204.3,170.7 204.3,170.7" />
	<polyline class="edge" points="295.7,170.7 254.3,146.8 254.3,146.8" />
	<polyline class="edge" points="250.0,139.3 250.0,91.6 250.0,91.6" />
	<polyline class="edge" points="254.3,84.1 295.7,60.2 295.7,60.2" />
	<polyline class="edge" points="304.3,60.2 345.7,84.1 345.7,84.1" />
	<polyline class="edge" points="350.0,91.6 350.0,139.3 350.0,139.3" />
	<polyline class="edge" points="345.7,146.8 304.3,170.7 304.3,170.7" />
	<polyline class="edge" points="395.7,170.7 354.3,146.8 354.3,146.8" />
	<polyline class="edge" points="350.0,139.3 350.0,91.6 350.0,91.6" />
	<polyline class="edge" points="354.3,84.1 395.7,60.2 395.7,60.2" />
	<polyline class="edge" points="404.3,60.2 445.7,84.1 445.7,84.1" />
	<polyline class="edge" points="450.0,91.6 450.0,139.3 450.0,139.3" />
	<polyline class="edge" points="445.7,146.8 404.3,170.7 404.3,170.7" />
	<polyline class="edge" points="495.7,170.7 454.3,146.8 454.3,146.8" />
	<polyline class="edge" points="450.0,139.3 450.0,91.6 450.0,91.6" />
	<polyline class="edge" points="454.3,84.1 495.7,60.2 495.7,60.2" />
	<polyline class="edge" points="504.3,60.2 545.7,84.1 545.7,84.1" />
	<polyline class="edge" points="550.0,91.6 550.0,139.3 550.0,139.3" />
	<polyline class="edge" points="545.7,146.8 504.3,170.7 504.3,170.7" />
	<polyline class="edge" points="45.7,84.1 4.3,60.2 4.3,60.2" />
	<polyline class="edge" points="0.0,52.7 0.0,5.0 0.0,5.0" />
	<polyline class="edge" points="4.3,-2.5 45.7,-26.4 45.7,-26.4" />
	<polyline class="edge" points="54.3,-26.4 95.7,-2.5 95.7,-2.5" />
	<polyline class="edge" points="100.0,5.0 100.0,52.7 100.0,52.7" />
	<polyline class="edge" points="95.7,60.2 54.3,84.1 54.3,84.1" />
	<polyline class="edge" points="145.7,84.1 104.3,60.2 104.3,60.2" />
	<polyline class="edge" points="100.0,52.7 100.0,5.0 100.0,5.0" />
	<polyline class="edge" points="104.3,-2.5 145.7,-26.4 145.7,-26.4" />
	<polyline class="edge" points="154.3,-26.4 195.7,-2.5 195.7,-2.5" />
	<polyline class="edge" points="200.0,5.0 200.0,52.7 200.0,52.7" />
	<polyline class="edge" points="195.7,60.2 154.3,84.1 154.3,84.1" />
	<polyline class="edge" points="245.7,84.1 204.3,60.2 204.3,60.2" />
	<polyline class="edge" points="200.0,52.7 200.0,5.0 200.0,5.0" />
	<polyline class="edge" points="204.3,-2.5 245.7,-26.4 245.7,-26.4" />
	<polyline class="edge" points="254.3,-26.4 295.7,-2.5 295.7,-2.5" />
	<polyline class="edge" points="300.0,5.0 300.0,52.7 300.0,52.7" />
	<polyline class="edge" points="295.7,60.2 254.3,84.1 254.3,84.1" />
	<polyline class="edge" points="345.7,84.1 304.3,60.2 304.3,60.2" />
	<polyline class="edge" points="300.0,52.7 300.0,5.0 300.0,5.0" />
	<polyline class="edge" points="304.3,-2.5 345.7,-26.4 345.7,-26.4" />
	<polyline class="edge" points="354.3,-26.4 395.7,-2.5 395.7,-2.5" />
	<polyline class="edge" points="400.0,5.0 400.0,52.7 400.0,52.7" />
	<polyline class="edge" points="395.7,60.2 354.3,84.1 354.3,84.1" />
	<polyline class="edge" points="445.7,84.1 404.3,60.2 404.3,60.2" />
	<polyline class="edge" points="400.0,52.7 400.0,5.0 400.0,5.0" />
	<polyline class="edge" points="404.3,-2.5 445.7,-26.4 445.7,-26.4" />
	<polyline class="edge" points="454.3,-26.4 495.7,-2.5 495.7,-2.5" />
	<polyline class="edge" points="500.0,5.0 500.0,52.7 500.0,52.7" />
	<polyline class="edge" points="495.7,60.2 454.3,84.1 454.3,84.1" />
	<polyline class="edge" points="4.3,406.6 45.7,430.5 45.7,430.5" />
	<polyline class="edge" points="54.3,430.5 95.7,406.6 95.7,406.6" />
	<polyline class="edge" points="104.3,406.6 145.7,430.5 145.7,430.5" />
	<polyline class="edge" points="154.3,430.5 195.7,406.6 195.7,406.6" />
	<polyline class="edge" points="204.3,406.6 245.7,430.5 245.7,430.5" />
	<polyline class="edge" points="254.3,430.5 295.7,406.6 295.7,406.6" />
	<polyline class="edge" points="304.3,406.6 345.7,430.5 345.7,430.5" />
	<polyline class="edge" points="354.3,430.5 395.7,406.6 395.7,406.6" />
	<polyline class="edge" points="404.3,406.6 445.7,430.5 445.7,430.5" />
	<polyline class="edge" points="454.3,430.5 495.7,406.6 495.7,406.6" />
	<polyline class="edge" points="500.0,399.1 500.0,351.4 500.0,351.4" />
	<polyline class="edge" points="504.3,343.9 545.7,320.0 545.7,320.0" />
	<polyline class="edge" points="550.0,312.5 550.0,264.8 550.0,264.8" />
	<polyline class="edge" points="545.7,257.3 504.3,233.4 504.3,233.4" />
	<polyline class="edge" points="500.0,225.9 500.0,178.2 500.0,178.2" />
	<polyline class="edge" points="504.3,170.7 545.7,146.8 545.7,146.8" />
	<polyline class="edge" points="550.0,139.3 550.0,91.6 550.0,91.6" />
	<polyline class="edge" points="545.7,84.1 504.3,60.2 504.3,60.2" />
	<polyline class="edge" points="500.0,52.7 500.0,5.0 500.0,5.0" />
	<polyline class="edge" points="495.7,-2.5 454.3,-26.4 454.3,-26.4" />
	<polyline class="edge" points="445.7,-26.4 404.3,-2.5 404.3,-2.5" />
	<polyline class="edge" points="395.7,-2.5 354.3,-26.4 354.3,-26.4" />
	<polyline class="edge" points="345.7,-26.4 304.3,-2.5 304.3,-2.5" />
	<polyline class="edge" points="295.7,-2.5 254.3,-26.4 254.3,-26.4" />
	<polyline class="edge" points="245.7,-26.4 204.3,-2.5 204.3,-2.5" />
	<polyline class="edge" points="195.7,-2.5 154.3,-26.4 154.3,-26.4" />
	<polyline class="edge" points="145.7,-26.4 104.3,-2.5 104.3,-2.5" />
	<polyline class="edge" points="95.7,-2.5 54.3,-26.4 54.3,-26.4" />
	<polyline class="edge" points="45.7,-26.4 4.3,-2.5 4.3,-2.5" />
	<polyline class="edge" points="0.0,5.0 0.0,52.7 0.0,52.7" />
	<polyline class="edge" points="4.3,60.2 45.7,84.1 45.7,84.1" />
	<polyline class="edge" points="50.0,91.6 50.0,139.3 50.0,139.3" />
	<polyline class="edge" points="45.7,146.8 4.3,170.7 4.3,170.7" />
	<polyline class="edge" points="0.0,178.2 0.0,225.9 0.0,225.9" />
	<polyline class="edge" points="4.3,233.4 45.7,257.3 45.7,257.3" />
	<polyline class="edge" points="50.0,264.8 50.0,312.5 50.0,312.5" />
	<polyline class="edge" points="45.7,320.0 4.3,343.9 4.3,343.9" />
	<polyline class="edge" points="0.0,351.4 0.0,399.1 0.0,399.1" />

	<!-- Vertices -->
	<ellipse class="vertex" cx="0.0" cy="404.1" rx="5.0" ry="5.0" />
	<ellipse class="vertex" cx="50.0" cy="433.0" rx="5.0" ry="5.0" />
	<ellipse class="vertex" cx="100.0" cy="404.1" rx="5.0" ry="5.0" />
	<ellipse class="vertex" cx="150.0" cy="433.0" rx="5.0" ry="5.0" />
	<ellipse class="vertex" cx="200.0" cy="404.1" rx="5.0" ry="5.0" />
	<ellipse class="vertex" cx="250.0" cy="433.0" rx="5.0" ry="5.0" />
	<ellipse class="vertex" cx="300.0" cy="404.1" rx="5.0" ry="5.0" />
	<ellipse class="vertex" cx="350.0" cy="433.0" rx="5.0" ry="5.0" />
	<ellipse class="vertex" cx="400.0" cy="404.1" rx="5.0" ry="5.0" />
	<ellipse class="vertex" cx="450.0" cy="433.0" rx="5.0" ry="5.0" />
	<ellipse class="vertex" cx="500.0" cy="404.1" rx="5.0" ry="5.0" />
	<ellipse class="vertex" cx="0.0" cy="346.4" rx="5.0" ry="5.0" />
	<ellipse class="vertex" cx="50.0" cy="317.5" rx="5.0" ry="5.0" />
	<ellipse class="vertex" cx="100.0" cy="346.4" rx="5.0" ry="5.0" />
	<ellipse class="vertex" cx="150.0" cy="317.5" rx="5.0" ry="5.0" />
	<ellipse class="vertex" cx="200.0" cy="346.4" rx="5.0" ry="5.0" />
	<ellipse class="vertex" cx="250.0" cy="317.5" rx="5.0" ry="5.0" />
	<ellipse class="vertex" cx="300.0" cy="346.4" rx="5.0" ry="5.0" />
	<ellipse class="vertex" cx="350.0" cy="317.5" rx="5.0" ry="5.0" />
	<ellipse class="vertex" cx="400.0" cy="346.4" rx="5.0" ry="5.0" />
	<ellipse class="vertex" cx="450.0" cy="317.5" rx="5.0" ry="5.0" />
	<ellipse class="vertex" cx="500.0" cy="346.4" rx="5.0" ry="5.0" />
	<ellipse class="vertex" cx="550.0" cy="317.5" rx="5.0" ry="5.0" />
	<ellipse class="vertex" cx="0.0" cy="230.9" rx="5.0" ry="5.0" />
	<ellipse class="vertex" cx="50.0" cy="259.8" rx="5.0" ry="5.0" />
	<ellipse class="vertex" cx="100.0" cy="230.9" rx="5.0" ry="5.0" />
	<ellipse class="vertex" cx="150.0" cy="259.8" rx="5.0" ry="5.0" />
	<ellipse class="vertex" cx="200.0" cy="230.9" rx="5.0" ry="5.0" />
	<ellipse class="vertex" cx="250.0" cy="259.8" rx="5.0" ry="5.0" />
	<ellipse class="vertex" cx="300.0" cy="230.9" rx="5.0" ry="5.0" />
	<ellipse class="vertex" cx="350.0" cy="259.8" rx="5.0" ry="5.0" />
	<ellipse class="vertex" cx="400.0" cy="230.9" rx="5.0" ry="5.0" />
	<ellipse class="vertex" cx="450.0" cy="259.8" rx="5.0" ry="5.0" />
	<ellipse class="vertex" cx="500.0" cy="230.9" rx="5.0" ry="5.0" />
	<ellipse class="vertex" cx="550.0" cy="259.8" rx="5.0" ry="5.0" />
	<ellipse class="vertex" cx="0.0" cy="173.2" rx="5.0" ry="5.0" />
	<ellipse class="vertex" cx="50.0" cy="144.3" rx="5.0" ry="5.0" />
	<ellipse class="vertex" cx="100.0" cy="173.2" rx="5.0" ry="5.0" />
	<ellipse class="vertex" cx="150.0" cy="144.3" rx="5.0" ry="5.0" />
	<ellipse class="vertex" cx="200.0" cy="173.2" rx="5.0" ry="5.0" />
	<ellipse class="vertex" cx="250.0" cy="144.3" rx="5.0" ry="5.0" />
	<ellipse class="vertex" cx="300.0" cy="173.2" rx="5.0" ry="5.0" />
	<ellipse class="vertex" cx="350.0" cy="144.3" rx="5.0" ry="5.0" />
	<ellipse class="vertex" cx="400.0" cy="173.2" rx="5.0" ry="5.0" />
	<ellipse class="vertex" cx="450.0" cy="144.3" rx="5.0" ry="5.0" />
	<ellipse class="vertex" cx="500.0" cy="173.2" rx="5.0" ry="5.0" />
	<ellipse class="vertex" cx="550.0" cy="144.3" rx="5.0" ry="5.0" />
	<ellipse class="vertex" cx="0.0" cy="57.7" rx="5.0" ry="5.0" />
	<ellipse class="vertex" cx="50.0" cy="86.6" rx="5.0" ry="5.0" />
	<ellipse class="vertex" cx="100.0" cy="57.7" rx="5.0" ry="5.0" />
	<ellipse class="vertex" cx="150.0" cy="86.6" rx="5.0" ry="5.0" />
	<ellipse class="vertex" cx="200.0" cy="57.7" rx="5.0" ry="5.0" />
	<ellipse class="vertex" cx="250.0" cy="86.6" rx="5.0" ry="5.0" />
	<ellipse class="vertex" cx="300.0" cy="57.7" rx="5.0" ry="5.0" />
	<ellipse class="vertex" cx="350.0" cy="86.6" rx="5.0" ry="5.0" />
	<ellipse class="vertex" cx="400.0" cy="57.7" rx="5.0" ry="5.0" />
	<ellipse class="vertex" cx="450.0" cy="86.6" rx="5.0" ry="5.0" />
	<ellipse class="vertex" cx="500.0" cy="57.7" rx="5.0" ry="5.0" />
	<ellipse class="vertex" cx="550.0" cy="86.6" rx="5.0" ry="5.0" />
	<ellipse class="vertex" cx="0.0" cy="0.0" rx="5.0" ry="5.0" />
	<ellipse class="vertex" cx="50.0" cy="-28.9" rx="5.0" ry="5.0" />
	<ellipse class="vertex" cx="100.0" cy="0.0" rx="5.0" ry="5.0" />
	<ellipse class="vertex" cx="150.0" cy="-28.9" rx="5.0" ry="5.0" />
	<ellipse class="vertex" cx="200.0" cy="0.0" rx="5.0" ry="5.0" />
	<ellipse class="vertex" cx="250.0" cy="-28.9" rx="5.0" ry="5.0" />
	<ellipse class="vertex" cx="300.0" cy="0.0" rx="5.0" ry="5.0" />
	<ellipse class="vertex" cx="350.0" cy="-28.9" rx="5.0" ry="5.0" />
	<ellipse class="vertex" cx="400.0" cy="0.0" rx="5.0" ry="5.0" />
	<ellipse class="vertex" cx="450.0" cy="-28.9" rx="5.0" ry="5.0" />
	<ellipse class="vertex" cx="500.0" cy="0.0" rx="5.0" ry="5.0" />
</svg>
