<svg viewBox="-20.0 -20.0 540.0 340.0" xmlns="http://www.w3.org/2000/svg">
	<style>
		svg
		{
			width: 800px;
			height: 400px;
		}
		text.index
		{
			font-family: Tahoma, sans-serif;
		}
		ellipse.vertex
		{
			stroke: black;
			stroke-width: 1;
			fill: none;
		}
		text.vertex.index
		{
			fill: black;
			text-anchor: middle;
			dominant-baseline: central;
			font-size: 12px;
		}
		polygon.face
		{
			fill: #CCC;
			stroke: none;
		}
		text.face.index
		{
			fill: black;
			text-anchor: middle;
			dominant-baseline: central;
			font-size: 24px;
		}
		polyline.edge
		{
			stroke: black;
			stroke-width: 1;
			stroke-linecap: square;
			stroke-linejoin: miter;
			fill: none;
		}
		text.edge.index
		{
			fill: black;
			text-anchor: middle;
			dominant-baseline: central;
			font-size: 10px;
		}
		
		.face, .not-wrapped, .wrapped-neither
		{
			display: none;
		}
	</style>

	<!-- Faces -->
	<polygon class="face" points="21.2,278.8 21.2,221.2 78.8,221.2 78.8,278.8" />
	<text class="face index" x="50.0" y="250.0">0</text>
	<polygon class="face" points="121.2,278.8 121.2,221.2 178.8,221.2 178.8,278.8" />
	<text class="face index" x="150.0" y="250.0">1</text>
	<polygon class="face" points="221.2,278.8 221.2,221.2 278.8,221.2 278.8,278.8" />
	<text class="face index" x="250.0" y="250.0">2</text>
	<polygon class="face" points="321.2,278.8 321.2,221.2 378.8,221.2 378.8,278.8" />
	<text class="face index" x="350.0" y="250.0">3</text>
	<polygon class="face" points="421.2,278.8 421.2,221.2 478.8,221.2 478.8,278.8" />
	<text class="face index" x="450.0" y="250.0">4</text>
	<polygon class="face" points="21.2,178.8 21.2,121.2 78.8,121.2 78.8,178.8" />
	<text class="face index" x="50.0" y="150.0">5</text>
	<polygon class="face" points="121.2,178.8 121.2,121.2 178.8,121.2 178.8,178.8" />
	<text class="face index" x="150.0" y="150.0">6</text>
	<polygon class="face" points="221.2,178.8 221.2,121.2 278.8,121.2 278.8,178.8" />
	<text class="face index" x="250.0" y="150.0">7</text>
	<polygon class="face" points="321.2,178.8 321.2,121.2 378.8,121.2 378.8,178.8" />
	<text class="face index" x="350.0" y="150.0">8</text>
	<polygon class="face" points="421.2,178.8 421.2,121.2 478.8,121.2 478.8,178.8" />
	<text class="face index" x="450.0" y="150.0">9</text>
	<polygon class="face" points="21.2,78.8 21.2,21.2 78.8,21.2 78.8,78.8" />
	<text class="face index" x="50.0" y="50.0">10</text>
	<polygon class="face" points="121.2,78.8 121.2,21.2 178.8,21.2 178.8,78.8" />
	<text class="face index" x="150.0" y="50.0">11</text>
	<polygon class="face" points="221.2,78.8 221.2,21.2 278.8,21.2 278.8,78.8" />
	<text class="face index" x="250.0" y="50.0">12</text>
	<polygon class="face" points="321.2,78.8 321.2,21.2 378.8,21.2 378.8,78.8" />
	<text class="face index" x="350.0" y="50.0">13</text>
	<polygon class="face" points="421.2,78.8 421.2,21.2 478.8,21.2 478.8,78.8" />
	<text class="face index" x="450.0" y="50.0">14</text>

	<!-- Edges -->
	<polyline class="edge not-wrapped" points="87.0,301.5 13.0,301.5 18.0,304.5" />
	<text class="edge index not-wrapped" x="50.0" y="309.5">0</text>
	<polyline class="edge wrapped" points="87.0,1.5 13.0,1.5 18.0,4.5" />
	<text class="edge index wrapped" x="50.0" y="9.5">0</text>
	<polyline class="edge not-wrapped" points="-1.5,287.0 -1.5,213.0 -4.5,218.0" />
	<text class="edge index not-wrapped" x="-9.5" y="250.0">1</text>
	<polyline class="edge wrapped" points="498.5,287.0 498.5,213.0 495.5,218.0" />
	<text class="edge index wrapped" x="490.5" y="250.0">1</text>
	<polyline class="edge not-wrapped" points="13.0,198.5 87.0,198.5 82.0,195.5" />
	<text class="edge index not-wrapped" x="50.0" y="190.5">2</text>
	<polyline class="edge not-wrapped" points="101.5,213.0 101.5,287.0 104.5,282.0" />
	<text class="edge index not-wrapped" x="109.5" y="250.0">3</text>
	<polyline class="edge not-wrapped" points="187.0,301.5 113.0,301.5 118.0,304.5" />
	<text class="edge index not-wrapped" x="150.0" y="309.5">4</text>
	<polyline class="edge wrapped" points="187.0,1.5 113.0,1.5 118.0,4.5" />
	<text class="edge index wrapped" x="150.0" y="9.5">4</text>
	<polyline class="edge not-wrapped" points="98.5,287.0 98.5,213.0 95.5,218.0" />
	<text class="edge index not-wrapped" x="90.5" y="250.0">5</text>
	<polyline class="edge not-wrapped" points="113.0,198.5 187.0,198.5 182.0,195.5" />
	<text class="edge index not-wrapped" x="150.0" y="190.5">6</text>
	<polyline class="edge not-wrapped" points="201.5,213.0 201.5,287.0 204.5,282.0" />
	<text class="edge index not-wrapped" x="209.5" y="250.0">7</text>
	<polyline class="edge not-wrapped" points="287.0,301.5 213.0,301.5 218.0,304.5" />
	<text class="edge index not-wrapped" x="250.0" y="309.5">8</text>
	<polyline class="edge wrapped" points="287.0,1.5 213.0,1.5 218.0,4.5" />
	<text class="edge index wrapped" x="250.0" y="9.5">8</text>
	<polyline class="edge not-wrapped" points="198.5,287.0 198.5,213.0 195.5,218.0" />
	<text class="edge index not-wrapped" x="190.5" y="250.0">9</text>
	<polyline class="edge not-wrapped" points="213.0,198.5 287.0,198.5 282.0,195.5" />
	<text class="edge index not-wrapped" x="250.0" y="190.5">10</text>
	<polyline class="edge not-wrapped" points="301.5,213.0 301.5,287.0 304.5,282.0" />
	<text class="edge index not-wrapped" x="309.5" y="250.0">11</text>
	<polyline class="edge not-wrapped" points="387.0,301.5 313.0,301.5 318.0,304.5" />
	<text class="edge index not-wrapped" x="350.0" y="309.5">12</text>
	<polyline class="edge wrapped" points="387.0,1.5 313.0,1.5 318.0,4.5" />
	<text class="edge index wrapped" x="350.0" y="9.5">12</text>
	<polyline class="edge not-wrapped" points="298.5,287.0 298.5,213.0 295.5,218.0" />
	<text class="edge index not-wrapped" x="290.5" y="250.0">13</text>
	<polyline class="edge not-wrapped" points="313.0,198.5 387.0,198.5 382.0,195.5" />
	<text class="edge index not-wrapped" x="350.0" y="190.5">14</text>
	<polyline class="edge not-wrapped" points="401.5,213.0 401.5,287.0 404.5,282.0" />
	<text class="edge index not-wrapped" x="409.5" y="250.0">15</text>
	<polyline class="edge not-wrapped" points="487.0,301.5 413.0,301.5 418.0,304.5" />
	<text class="edge index not-wrapped" x="450.0" y="309.5">16</text>
	<polyline class="edge wrapped" points="487.0,1.5 413.0,1.5 418.0,4.5" />
	<text class="edge index wrapped" x="450.0" y="9.5">16</text>
	<polyline class="edge not-wrapped" points="398.5,287.0 398.5,213.0 395.5,218.0" />
	<text class="edge index not-wrapped" x="390.5" y="250.0">17</text>
	<polyline class="edge not-wrapped" points="413.0,198.5 487.0,198.5 482.0,195.5" />
	<text class="edge index not-wrapped" x="450.0" y="190.5">18</text>
	<polyline class="edge not-wrapped" points="501.5,213.0 501.5,287.0 504.5,282.0" />
	<text class="edge index not-wrapped" x="509.5" y="250.0">19</text>
	<polyline class="edge wrapped" points="1.5,213.0 1.5,287.0 4.5,282.0" />
	<text class="edge index wrapped" x="9.5" y="250.0">19</text>
	<polyline class="edge not-wrapped" points="87.0,201.5 13.0,201.5 18.0,204.5" />
	<text class="edge index not-wrapped" x="50.0" y="209.5">20</text>
	<polyline class="edge not-wrapped" points="-1.5,187.0 -1.5,113.0 -4.5,118.0" />
	<text class="edge index not-wrapped" x="-9.5" y="150.0">21</text>
	<polyline class="edge wrapped" points="498.5,187.0 498.5,113.0 495.5,118.0" />
	<text class="edge index wrapped" x="490.5" y="150.0">21</text>
	<polyline class="edge not-wrapped" points="13.0,98.5 87.0,98.5 82.0,95.5" />
	<text class="edge index not-wrapped" x="50.0" y="90.5">22</text>
	<polyline class="edge not-wrapped" points="101.5,113.0 101.5,187.0 104.5,182.0" />
	<text class="edge index not-wrapped" x="109.5" y="150.0">23</text>
	<polyline class="edge not-wrapped" points="187.0,201.5 113.0,201.5 118.0,204.5" />
	<text class="edge index not-wrapped" x="150.0" y="209.5">24</text>
	<polyline class="edge not-wrapped" points="98.5,187.0 98.5,113.0 95.5,118.0" />
	<text class="edge index not-wrapped" x="90.5" y="150.0">25</text>
	<polyline class="edge not-wrapped" points="113.0,98.5 187.0,98.5 182.0,95.5" />
	<text class="edge index not-wrapped" x="150.0" y="90.5">26</text>
	<polyline class="edge not-wrapped" points="201.5,113.0 201.5,187.0 204.5,182.0" />
	<text class="edge index not-wrapped" x="209.5" y="150.0">27</text>
	<polyline class="edge not-wrapped" points="287.0,201.5 213.0,201.5 218.0,204.5" />
	<text class="edge index not-wrapped" x="250.0" y="209.5">28</text>
	<polyline class="edge not-wrapped" points="198.5,187.0 198.5,113.0 195.5,118.0" />
	<text class="edge index not-wrapped" x="190.5" y="150.0">29</text>
	<polyline class="edge not-wrapped" points="213.0,98.5 287.0,98.5 282.0,95.5" />
	<text class="edge index not-wrapped" x="250.0" y="90.5">30</text>
	<polyline class="edge not-wrapped" points="301.5,113.0 301.5,187.0 304.5,182.0" />
	<text class="edge index not-wrapped" x="309.5" y="150.0">31</text>
	<polyline class="edge not-wrapped" points="387.0,201.5 313.0,201.5 318.0,204.5" />
	<text class="edge index not-wrapped" x="350.0" y="209.5">32</text>
	<polyline class="edge not-wrapped" points="298.5,187.0 298.5,113.0 295.5,118.0" />
	<text class="edge index not-wrapped" x="290.5" y="150.0">33</text>
	<polyline class="edge not-wrapped" points="313.0,98.5 387.0,98.5 382.0,95.5" />
	<text class="edge index not-wrapped" x="350.0" y="90.5">34</text>
	<polyline class="edge not-wrapped" points="401.5,113.0 401.5,187.0 404.5,182.0" />
	<text class="edge index not-wrapped" x="409.5" y="150.0">35</text>
	<polyline class="edge not-wrapped" points="487.0,201.5 413.0,201.5 418.0,204.5" />
	<text class="edge index not-wrapped" x="450.0" y="209.5">36</text>
	<polyline class="edge not-wrapped" points="398.5,187.0 398.5,113.0 395.5,118.0" />
	<text class="edge index not-wrapped" x="390.5" y="150.0">37</text>
	<polyline class="edge not-wrapped" points="413.0,98.5 487.0,98.5 482.0,95.5" />
	<text class="edge index not-wrapped" x="450.0" y="90.5">38</text>
	<polyline class="edge not-wrapped" points="501.5,113.0 501.5,187.0 504.5,182.0" />
	<text class="edge index not-wrapped" x="509.5" y="150.0">39</text>
	<polyline class="edge wrapped" points="1.5,113.0 1.5,187.0 4.5,182.0" />
	<text class="edge index wrapped" x="9.5" y="150.0">39</text>
	<polyline class="edge not-wrapped" points="87.0,101.5 13.0,101.5 18.0,104.5" />
	<text class="edge index not-wrapped" x="50.0" y="109.5">40</text>
	<polyline class="edge not-wrapped" points="-1.5,87.0 -1.5,13.0 -4.5,18.0" />
	<text class="edge index not-wrapped" x="-9.5" y="50.0">41</text>
	<polyline class="edge wrapped" points="498.5,87.0 498.5,13.0 495.5,18.0" />
	<text class="edge index wrapped" x="490.5" y="50.0">41</text>
	<polyline class="edge not-wrapped" points="13.0,-1.5 87.0,-1.5 82.0,-4.5" />
	<text class="edge index not-wrapped" x="50.0" y="-9.5">42</text>
	<polyline class="edge wrapped" points="13.0,298.5 87.0,298.5 82.0,295.5" />
	<text class="edge index wrapped" x="50.0" y="290.5">42</text>
	<polyline class="edge not-wrapped" points="101.5,13.0 101.5,87.0 104.5,82.0" />
	<text class="edge index not-wrapped" x="109.5" y="50.0">43</text>
	<polyline class="edge not-wrapped" points="187.0,101.5 113.0,101.5 118.0,104.5" />
	<text class="edge index not-wrapped" x="150.0" y="109.5">44</text>
	<polyline class="edge not-wrapped" points="98.5,87.0 98.5,13.0 95.5,18.0" />
	<text class="edge index not-wrapped" x="90.5" y="50.0">45</text>
	<polyline class="edge not-wrapped" points="113.0,-1.5 187.0,-1.5 182.0,-4.5" />
	<text class="edge index not-wrapped" x="150.0" y="-9.5">46</text>
	<polyline class="edge wrapped" points="113.0,298.5 187.0,298.5 182.0,295.5" />
	<text class="edge index wrapped" x="150.0" y="290.5">46</text>
	<polyline class="edge not-wrapped" points="201.5,13.0 201.5,87.0 204.5,82.0" />
	<text class="edge index not-wrapped" x="209.5" y="50.0">47</text>
	<polyline class="edge not-wrapped" points="287.0,101.5 213.0,101.5 218.0,104.5" />
	<text class="edge index not-wrapped" x="250.0" y="109.5">48</text>
	<polyline class="edge not-wrapped" points="198.5,87.0 198.5,13.0 195.5,18.0" />
	<text class="edge index not-wrapped" x="190.5" y="50.0">49</text>
	<polyline class="edge not-wrapped" points="213.0,-1.5 287.0,-1.5 282.0,-4.5" />
	<text class="edge index not-wrapped" x="250.0" y="-9.5">50</text>
	<polyline class="edge wrapped" points="213.0,298.5 287.0,298.5 282.0,295.5" />
	<text class="edge index wrapped" x="250.0" y="290.5">50</text>
	<polyline class="edge not-wrapped" points="301.5,13.0 301.5,87.0 304.5,82.0" />
	<text class="edge index not-wrapped" x="309.5" y="50.0">51</text>
	<polyline class="edge not-wrapped" points="387.0,101.5 313.0,101.5 318.0,104.5" />
	<text class="edge index not-wrapped" x="350.0" y="109.5">52</text>
	<polyline class="edge not-wrapped" points="298.5,87.0 298.5,13.0 295.5,18.0" />
	<text class="edge index not-wrapped" x="290.5" y="50.0">53</text>
	<polyline class="edge not-wrapped" points="313.0,-1.5 387.0,-1.5 382.0,-4.5" />
	<text class="edge index not-wrapped" x="350.0" y="-9.5">54</text>
	<polyline class="edge wrapped" points="313.0,298.5 387.0,298.5 382.0,295.5" />
	<text class="edge index wrapped" x="350.0" y="290.5">54</text>
	<polyline class="edge not-wrapped" points="401.5,13.0 401.5,87.0 404.5,82.0" />
	<text class="edge index not-wrapped" x="409.5" y="50.0">55</text>
	<polyline class="edge not-wrapped" points="487.0,101.5 413.0,101.5 418.0,104.5" />
	<text class="edge index not-wrapped" x="450.0" y="109.5">56</text>
	<polyline class="edge not-wrapped" points="398.5,87.0 398.5,13.0 395.5,18.0" />
	<text class="edge index not-wrapped" x="390.5" y="50.0">57</text>
	<polyline class="edge not-wrapped" points="413.0,-1.5 487.0,-1.5 482.0,-4.5" />
	<text class="edge index not-wrapped" x="450.0" y="-9.5">58</text>
	<polyline class="edge wrapped" points="413.0,298.5 487.0,298.5 482.0,295.5" />
	<text class="edge index wrapped" x="450.0" y="290.5">58</text>
	<polyline class="edge not-wrapped" points="501.5,13.0 501.5,87.0 504.5,82.0" />
	<text class="edge index not-wrapped" x="509.5" y="50.0">59</text>
	<polyline class="edge wrapped" points="1.5,13.0 1.5,87.0 4.5,82.0" />
	<text class="edge index wrapped" x="9.5" y="50.0">59</text>

	<!-- Vertices -->
	<ellipse class="vertex wrapped-axis-0" cx="500.0" cy="300.0" rx="10.0" ry="10.0" />
	<text class="vertex index wrapped-axis-0" x="500.0" y="300.0">0</text>
	<ellipse class="vertex wrapped-neither" cx="0.0" cy="300.0" rx="10.0" ry="10.0" />
	<text class="vertex index wrapped-neither" x="0.0" y="300.0">0</text>
	<ellipse class="vertex wrapped-axis-1" cx="0.0" cy="0.0" rx="10.0" ry="10.0" />
	<text class="vertex index wrapped-axis-1" x="0.0" y="0.0">0</text>
	<ellipse class="vertex wrapped-both" cx="500.0" cy="0.0" rx="10.0" ry="10.0" />
	<text class="vertex index wrapped-both" x="500.0" y="0.0">0</text>
	<ellipse class="vertex wrapped-axis-1" cx="100.0" cy="0.0" rx="10.0" ry="10.0" />
	<text class="vertex index wrapped-axis-1" x="100.0" y="0.0">1</text>
	<ellipse class="vertex wrapped-neither" cx="100.0" cy="300.0" rx="10.0" ry="10.0" />
	<text class="vertex index wrapped-neither" x="100.0" y="300.0">1</text>
	<ellipse class="vertex wrapped-axis-1" cx="200.0" cy="0.0" rx="10.0" ry="10.0" />
	<text class="vertex index wrapped-axis-1" x="200.0" y="0.0">2</text>
	<ellipse class="vertex wrapped-neither" cx="200.0" cy="300.0" rx="10.0" ry="10.0" />
	<text class="vertex index wrapped-neither" x="200.0" y="300.0">2</text>
	<ellipse class="vertex wrapped-axis-1" cx="300.0" cy="0.0" rx="10.0" ry="10.0" />
	<text class="vertex index wrapped-axis-1" x="300.0" y="0.0">3</text>
	<ellipse class="vertex wrapped-neither" cx="300.0" cy="300.0" rx="10.0" ry="10.0" />
	<text class="vertex index wrapped-neither" x="300.0" y="300.0">3</text>
	<ellipse class="vertex wrapped-axis-1" cx="400.0" cy="0.0" rx="10.0" ry="10.0" />
	<text class="vertex index wrapped-axis-1" x="400.0" y="0.0">4</text>
	<ellipse class="vertex wrapped-neither" cx="400.0" cy="300.0" rx="10.0" ry="10.0" />
	<text class="vertex index wrapped-neither" x="400.0" y="300.0">4</text>
	<ellipse class="vertex wrapped-neither" cx="0.0" cy="200.0" rx="10.0" ry="10.0" />
	<text class="vertex index wrapped-neither" x="0.0" y="200.0">5</text>
	<ellipse class="vertex wrapped-axis-0" cx="500.0" cy="200.0" rx="10.0" ry="10.0" />
	<text class="vertex index wrapped-axis-0" x="500.0" y="200.0">5</text>
	<ellipse class="vertex wrapped-neither" cx="100.0" cy="200.0" rx="10.0" ry="10.0" />
	<text class="vertex index wrapped-neither" x="100.0" y="200.0">6</text>
	<ellipse class="vertex wrapped-neither" cx="200.0" cy="200.0" rx="10.0" ry="10.0" />
	<text class="vertex index wrapped-neither" x="200.0" y="200.0">7</text>
	<ellipse class="vertex wrapped-neither" cx="300.0" cy="200.0" rx="10.0" ry="10.0" />
	<text class="vertex index wrapped-neither" x="300.0" y="200.0">8</text>
	<ellipse class="vertex wrapped-neither" cx="400.0" cy="200.0" rx="10.0" ry="10.0" />
	<text class="vertex index wrapped-neither" x="400.0" y="200.0">9</text>
	<ellipse class="vertex wrapped-neither" cx="0.0" cy="100.0" rx="10.0" ry="10.0" />
	<text class="vertex index wrapped-neither" x="0.0" y="100.0">10</text>
	<ellipse class="vertex wrapped-axis-0" cx="500.0" cy="100.0" rx="10.0" ry="10.0" />
	<text class="vertex index wrapped-axis-0" x="500.0" y="100.0">10</text>
	<ellipse class="vertex wrapped-neither" cx="100.0" cy="100.0" rx="10.0" ry="10.0" />
	<text class="vertex index wrapped-neither" x="100.0" y="100.0">11</text>
	<ellipse class="vertex wrapped-neither" cx="200.0" cy="100.0" rx="10.0" ry="10.0" />
	<text class="vertex index wrapped-neither" x="200.0" y="100.0">12</text>
	<ellipse class="vertex wrapped-neither" cx="300.0" cy="100.0" rx="10.0" ry="10.0" />
	<text class="vertex index wrapped-neither" x="300.0" y="100.0">13</text>
	<ellipse class="vertex wrapped-neither" cx="400.0" cy="100.0" rx="10.0" ry="10.0" />
	<text class="vertex index wrapped-neither" x="400.0" y="100.0">14</text>
</svg>
